<svg xmlns="http://www.w3.org/2000/svg"><symbol id="mecha-stilts" viewBox="0 0 210 242"><path d="M105 0l104.8 60.5v121L105 242 .2 181.5v-121zm60.8 165.7a2 2 0 0 0 0-4h-9.9v-12.5h9.9a1.9 1.9 0 0 0 2-2v-39.1a1.9 1.9 0 0 0-2-2h-13.1c-1-28.2-22.1-43.7-47.7-43.7s-46.7 15.5-47.7 43.7H44.2a1.9 1.9 0 0 0-2 2v39.1a1.9 1.9 0 0 0 2 2h9.9v12.5h-9.9a2 2 0 1 0 0 4zm-2-55.6v35.1H46.2v-35.1zm-93 39.1v12.5H58.1v-12.5zM105 66.3c23.2 0 42.7 14.2 43.7 39.8H61.3c1-25.6 20.4-39.8 43.7-39.8zm-10.3 82.9v12.5H74.8v-12.5zm16.7 0v12.5H98.6v-12.5zm43.1-15.5a2.2 2.2 0 0 0-2-2H104a2 2 0 0 0 0 4h48.5a2.2 2.2 0 0 0 2-2zm-19.3 15.5v12.5h-19.9v-12.5zm16.7 0v12.5h-12.7v-12.5z"/></symbol><symbol id="space-bubbles" viewBox="0 0 210 242"><path d="M105 0l104.8 60.5v121L105 242 .2 181.5v-121zM48.4 170.7l9.5-5h94l9.5 5a2.1 2.1 0 0 0 2.6-.6l4.6-6.6a2.1 2.1 0 0 0 0-2.4l-16.3-19.4h10.1a1.9 1.9 0 0 0 2-2v-14.3a1.9 1.9 0 0 0-2-2h-11.5a48.9 48.9 0 0 0 2.2-15.1 47 47 0 0 0-94 0 55.7 55.7 0 0 0 2.2 15.1H49.8a1.9 1.9 0 0 0-2 2v14.3a1.9 1.9 0 0 0 2 2h8.1l-16.5 19.4a2.1 2.1 0 0 0-.2 2.4l4.6 6.6a2.2 2.2 0 0 0 2.6.6zm33.3-22.1l-33.5 17.7-2.8-4 17.5-20.6H76zm78.7-21.2v10.3H51.7v-10.3zm-97.3-19.1a43 43 0 0 1 86 0 48.2 48.2 0 0 1-2.4 15.1H65.5c-2-4.6-2.4-10-2.4-15.1zm29.6 53.4H65.6l18.9-9.9zm36.1-20l-16.6 20H97.8l-16.7-20zm15.5 20h-27l8.2-9.9zm20.3.8l-2.8 3.8-33.8-17.7 6-6.9h13.1z"/></symbol><symbol id="super-domes" viewBox="0 0 210 242"><path d="M105 0l104.8 60.5v121L105 242 .2 181.5v-121zm57.4 165.7a1.9 1.9 0 0 0 2-2v-24h26.2a2 2 0 0 0 0-4h-14.9v-12.9a1.9 1.9 0 0 0-1.9-2H166c-6.6-27.4-31-48.1-60.4-48.3-.4-.2-.6-.2-.8 0A63 63 0 0 0 44 120.8h-7.8a1.8 1.8 0 0 0-1.9 2v12.9h-15a2 2 0 0 0 0 4h26.3v24a1.9 1.9 0 0 0 2 2zm9.4-40.9v10.9H38.2v-10.9zm-102.4-4H48.2c6.1-24 27.4-42.5 52.8-44.1zm33.6 18.9v22H49.6v-22zm0-18.9H74.4L103 80.7zm58.8 0H107V76.5a59 59 0 0 1 54.8 44.3zm-45.9 18.9v22H107v-22zm44.5 0v22h-40.5v-22z"/></symbol></svg>
